<svg width="40" height="49" viewBox="0 0 40 49" fill="none" xmlns="http://www.w3.org/2000/svg">
<g id="Logo sin fondo" clip-path="url(#clip0_261_4092)">
<path id="Vector" fill-rule="evenodd" clip-rule="evenodd" d="M35.316 23.0566C34.7845 26.0942 33.3876 28.9074 31.2978 31.1481C25.8 37.043 25.2 37.4387 25.2 37.4387L20 42.0682L14.6 37.21C14.6 37.21 11.1111 33.8273 8.70224 31.1481C6.29336 28.469 5.21548 26.0942 4.684 23.0566C4.15252 20.0188 4.50984 16.8896 5.71176 14.0558C6.91372 11.2219 8.90756 8.80755 11.4469 7.11118C13.9863 5.41476 16.9598 4.51072 20 4.51072C23.0402 4.51072 26.0137 5.41476 28.553 7.11118C31.0924 8.80755 33.0863 11.2219 34.2882 14.0558C35.4902 16.8896 35.8475 20.0188 35.316 23.0566ZM5.8578 34.6481L20 49L34.1422 34.6481C36.9392 31.8096 38.844 28.1931 39.6157 24.256C40.3872 20.3189 39.9913 16.238 38.4776 12.5293C36.9638 8.8206 34.4004 5.65075 31.1114 3.42055C27.8224 1.19036 23.9556 0 20 0C16.0444 0 12.1776 1.19036 8.88864 3.42055C5.59964 5.65075 3.0362 8.8206 1.52244 12.5293C0.00868244 16.238 -0.387399 20.3189 0.384285 24.256C1.15597 28.1931 3.06076 31.8096 5.8578 34.6481Z" fill="#00917F"/>
</g>
<defs>
<clipPath id="clip0_261_4092">
<rect width="40" height="49" fill="white"/>
</clipPath>
</defs>
</svg>
